<?xml version="1.0" encoding="UTF-8"?>
<!DOCTYPE xml>
<svg viewBox="0 0 206 61" fill="none" xmlns="http://www.w3.org/2000/svg">
    <path
        d="M91.6745 42H87.4499V33.373H79.5339V42H75.2956V22.0117H79.5339V29.8457H87.4499V22.0117H91.6745V42ZM110.016 34.3301C110.016 35.6061 109.842 36.7363 109.496 37.7207C109.159 38.7051 108.662 39.5391 108.006 40.2227C107.359 40.8971 106.575 41.4076 105.654 41.7539C104.743 42.1003 103.713 42.2734 102.564 42.2734C101.489 42.2734 100.5 42.1003 99.5977 41.7539C98.7044 41.4076 97.9251 40.8971 97.2598 40.2227C96.6035 39.5391 96.0931 38.7051 95.7285 37.7207C95.373 36.7363 95.1953 35.6061 95.1953 34.3301C95.1953 32.6348 95.4961 31.1992 96.0977 30.0234C96.6992 28.8477 97.556 27.9544 98.668 27.3437C99.7799 26.7331 101.106 26.4277 102.646 26.4277C104.077 26.4277 105.344 26.7331 106.447 27.3437C107.559 27.9544 108.43 28.8477 109.059 30.0234C109.697 31.1992 110.016 32.6348 110.016 34.3301ZM99.4473 34.3301C99.4473 35.3327 99.5566 36.1758 99.7754 36.8594C99.9941 37.543 100.336 38.0579 100.801 38.4043C101.266 38.7507 101.872 38.9238 102.619 38.9238C103.357 38.9238 103.954 38.7507 104.41 38.4043C104.875 38.0579 105.212 37.543 105.422 36.8594C105.641 36.1758 105.75 35.3327 105.75 34.3301C105.75 33.3184 105.641 32.4798 105.422 31.8145C105.212 31.14 104.875 30.6341 104.41 30.2969C103.945 29.9596 103.339 29.791 102.592 29.791C101.489 29.791 100.687 30.1693 100.186 30.9258C99.6934 31.6823 99.4473 32.8171 99.4473 34.3301ZM131.132 26.4277C132.864 26.4277 134.172 26.8743 135.056 27.7676C135.949 28.6517 136.396 30.0736 136.396 32.0332V42H132.212V33.0723C132.212 31.9785 132.025 31.1536 131.652 30.5977C131.278 30.0417 130.699 29.7637 129.915 29.7637C128.812 29.7637 128.029 30.1602 127.564 30.9531C127.099 31.737 126.866 32.8626 126.866 34.3301V42H122.697V33.0723C122.697 32.3431 122.615 31.7324 122.45 31.2402C122.286 30.748 122.036 30.3789 121.699 30.1328C121.361 29.8867 120.928 29.7637 120.4 29.7637C119.625 29.7637 119.014 29.9596 118.568 30.3516C118.13 30.7344 117.816 31.304 117.624 32.0605C117.442 32.8079 117.351 33.724 117.351 34.8086V42H113.181V26.7148H116.366L116.927 28.6699H117.159C117.469 28.1413 117.857 27.7129 118.322 27.3848C118.796 27.0566 119.315 26.8151 119.88 26.6602C120.445 26.5052 121.019 26.4277 121.603 26.4277C122.724 26.4277 123.672 26.61 124.447 26.9746C125.23 27.3392 125.832 27.9043 126.251 28.6699H126.62C127.076 27.8861 127.719 27.3164 128.548 26.9609C129.387 26.6055 130.248 26.4277 131.132 26.4277ZM146.711 26.4277C148.124 26.4277 149.341 26.7012 150.362 27.248C151.383 27.7858 152.171 28.5697 152.727 29.5996C153.283 30.6296 153.561 31.8874 153.561 33.373V35.3965H143.704C143.749 36.5723 144.1 37.4974 144.756 38.1719C145.422 38.8372 146.342 39.1699 147.518 39.1699C148.493 39.1699 149.387 39.0697 150.198 38.8691C151.009 38.6686 151.843 38.3678 152.7 37.9668V41.1934C151.943 41.5671 151.15 41.8405 150.321 42.0137C149.501 42.1868 148.503 42.2734 147.327 42.2734C145.795 42.2734 144.437 41.9909 143.253 41.4258C142.077 40.8607 141.152 39.9993 140.477 38.8418C139.812 37.6842 139.479 36.2259 139.479 34.4668C139.479 32.6803 139.78 31.1947 140.381 30.0098C140.992 28.8158 141.84 27.9225 142.924 27.3301C144.009 26.7285 145.271 26.4277 146.711 26.4277ZM146.739 29.3945C145.928 29.3945 145.253 29.6543 144.715 30.1738C144.187 30.6934 143.881 31.5091 143.799 32.6211H149.651C149.642 32.0013 149.528 31.4499 149.309 30.9668C149.1 30.4837 148.78 30.1009 148.352 29.8184C147.933 29.5358 147.395 29.3945 146.739 29.3945ZM160.308 42L154.484 26.7148H158.846L161.799 35.4238C161.963 35.9342 162.09 36.472 162.181 37.0371C162.282 37.6022 162.35 38.1081 162.387 38.5547H162.496C162.523 38.0716 162.587 37.5566 162.687 37.0098C162.797 36.4629 162.938 35.9342 163.111 35.4238L166.051 26.7148H170.412L164.588 42H160.308ZM178.595 26.4004C180.646 26.4004 182.218 26.847 183.312 27.7402C184.405 28.6335 184.952 29.9915 184.952 31.8145V42H182.04L181.234 39.9219H181.124C180.687 40.4687 180.24 40.9154 179.784 41.2617C179.329 41.6081 178.804 41.8633 178.212 42.0273C177.62 42.1914 176.9 42.2734 176.052 42.2734C175.15 42.2734 174.338 42.1003 173.618 41.7539C172.907 41.4076 172.347 40.8789 171.937 40.168C171.526 39.4479 171.321 38.5365 171.321 37.4336C171.321 35.8112 171.891 34.6172 173.03 33.8516C174.17 33.0768 175.879 32.6484 178.157 32.5664L180.81 32.4844V31.8145C180.81 31.0124 180.6 30.4245 180.181 30.0508C179.762 29.6771 179.178 29.4902 178.431 29.4902C177.693 29.4902 176.968 29.5951 176.257 29.8047C175.546 30.0143 174.835 30.2786 174.124 30.5977L172.743 27.7812C173.554 27.3529 174.461 27.0156 175.464 26.7695C176.476 26.5234 177.519 26.4004 178.595 26.4004ZM180.81 34.918L179.196 34.9727C177.847 35.0091 176.909 35.2507 176.38 35.6973C175.86 36.1439 175.601 36.7318 175.601 37.4609C175.601 38.099 175.788 38.5547 176.161 38.8281C176.535 39.0924 177.023 39.2246 177.624 39.2246C178.517 39.2246 179.269 38.9603 179.88 38.4316C180.5 37.903 180.81 37.151 180.81 36.1758V34.918ZM193.149 42H188.979V20.7266H193.149V42Z"
        fill="url(#paint0_linear_208_32)" />
    <path
        d="M91.6745 42V42.5H92.1745V42H91.6745ZM87.4499 42H86.9499V42.5H87.4499V42ZM87.4499 33.373H87.9499V32.873H87.4499V33.373ZM79.5339 33.373V32.873H79.0339V33.373H79.5339ZM79.5339 42V42.5H80.0339V42H79.5339ZM75.2956 42H74.7956V42.5H75.2956V42ZM75.2956 22.0117V21.5117H74.7956V22.0117H75.2956ZM79.5339 22.0117H80.0339V21.5117H79.5339V22.0117ZM79.5339 29.8457H79.0339V30.3457H79.5339V29.8457ZM87.4499 29.8457V30.3457H87.9499V29.8457H87.4499ZM87.4499 22.0117V21.5117H86.9499V22.0117H87.4499ZM91.6745 22.0117H92.1745V21.5117H91.6745V22.0117ZM91.6745 41.5H87.4499V42.5H91.6745V41.5ZM87.9499 42V33.373H86.9499V42H87.9499ZM87.4499 32.873H79.5339V33.873H87.4499V32.873ZM79.0339 33.373V42H80.0339V33.373H79.0339ZM79.5339 41.5H75.2956V42.5H79.5339V41.5ZM75.7956 42V22.0117H74.7956V42H75.7956ZM75.2956 22.5117H79.5339V21.5117H75.2956V22.5117ZM79.0339 22.0117V29.8457H80.0339V22.0117H79.0339ZM79.5339 30.3457H87.4499V29.3457H79.5339V30.3457ZM87.9499 29.8457V22.0117H86.9499V29.8457H87.9499ZM87.4499 22.5117H91.6745V21.5117H87.4499V22.5117ZM91.1745 22.0117V42H92.1745V22.0117H91.1745ZM109.496 37.7207L109.024 37.5547L109.023 37.5587L109.496 37.7207ZM108.006 40.2227L107.645 39.8764L107.645 39.8765L108.006 40.2227ZM105.654 41.7539L105.478 41.2859L105.477 41.2865L105.654 41.7539ZM99.5977 41.7539L99.4169 42.2201L99.4185 42.2207L99.5977 41.7539ZM97.2598 40.2227L96.899 40.569L96.9038 40.5738L97.2598 40.2227ZM95.7285 37.7207L95.2582 37.8905L95.2596 37.8944L95.7285 37.7207ZM106.447 27.3437L106.205 27.7812L106.207 27.782L106.447 27.3437ZM109.059 30.0234L108.618 30.2593L108.619 30.2619L109.059 30.0234ZM104.41 38.4043L104.111 38.0033L104.108 38.0062L104.41 38.4043ZM105.422 36.8594L104.946 36.707L104.944 36.7128L105.422 36.8594ZM105.422 31.8145L104.944 31.9629L104.947 31.9706L105.422 31.8145ZM100.186 30.9258L99.7687 30.6496L99.7664 30.6531L100.186 30.9258ZM109.516 34.3301C109.516 35.5618 109.348 36.6341 109.024 37.5547L109.968 37.8867C110.337 36.8386 110.516 35.6505 110.516 34.3301H109.516ZM109.023 37.5587C108.707 38.481 108.246 39.2503 107.645 39.8764L108.367 40.5689C109.078 39.8279 109.611 38.9291 109.969 37.8828L109.023 37.5587ZM107.645 39.8765C107.052 40.4943 106.333 40.9645 105.478 41.2859L105.83 42.2219C106.817 41.8506 107.665 41.3 108.367 40.5688L107.645 39.8765ZM105.477 41.2865C104.631 41.6078 103.663 41.7734 102.564 41.7734V42.7734C103.763 42.7734 104.855 42.5927 105.832 42.2213L105.477 41.2865ZM102.564 41.7734C101.543 41.7734 100.616 41.6092 99.7768 41.2871L99.4185 42.2207C100.384 42.5913 101.435 42.7734 102.564 42.7734V41.7734ZM99.7784 41.2877C98.9503 40.9666 98.2309 40.4951 97.6157 39.8715L96.9038 40.5738C97.6194 41.2991 98.4586 41.8485 99.4169 42.2201L99.7784 41.2877ZM97.6205 39.8764C97.0166 39.2474 96.5407 38.474 96.1974 37.547L95.2596 37.8944C95.6455 38.9361 96.1904 39.8307 96.8991 40.5689L97.6205 39.8764ZM96.1988 37.5509C95.8668 36.6314 95.6953 35.5605 95.6953 34.3301H94.6953C94.6953 35.6517 94.8793 36.8412 95.2582 37.8905L96.1988 37.5509ZM95.6953 34.3301C95.6953 32.6922 95.986 31.3393 96.5428 30.2512L95.6525 29.7957C95.0061 31.0591 94.6953 32.5774 94.6953 34.3301H95.6953ZM96.5428 30.2512C97.1008 29.1606 97.8881 28.3425 98.9087 27.782L98.4273 26.9055C97.2239 27.5664 96.2977 28.5347 95.6525 29.7957L96.5428 30.2512ZM98.9087 27.782C99.9326 27.2197 101.172 26.9277 102.646 26.9277V25.9277C101.04 25.9277 99.6273 26.2465 98.4273 26.9055L98.9087 27.782ZM102.646 26.9277C104.004 26.9277 105.186 27.2168 106.205 27.7812L106.689 26.9063C105.503 26.2493 104.151 25.9277 102.646 25.9277V26.9277ZM106.207 27.782C107.229 28.3436 108.032 29.1643 108.618 30.2593L109.499 29.7876C108.827 28.531 107.889 27.5653 106.688 26.9055L106.207 27.782ZM108.619 30.2619C109.208 31.3475 109.516 32.6963 109.516 34.3301H110.516C110.516 32.5733 110.185 31.051 109.498 29.785L108.619 30.2619ZM98.9473 34.3301C98.9473 35.3655 99.0598 36.2637 99.2992 37.0118L100.252 36.707C100.053 36.0879 99.9473 35.2998 99.9473 34.3301H98.9473ZM99.2992 37.0118C99.5421 37.7707 99.9354 38.3831 100.502 38.8052L101.1 38.0034C100.736 37.7328 100.446 37.3152 100.252 36.707L99.2992 37.0118ZM100.502 38.8052C101.075 39.2324 101.795 39.4238 102.619 39.4238V38.4238C101.948 38.4238 101.456 38.2689 101.1 38.0034L100.502 38.8052ZM102.619 39.4238C103.435 39.4238 104.148 39.2318 104.713 38.8024L104.108 38.0062C103.761 38.2695 103.28 38.4238 102.619 38.4238V39.4238ZM104.709 38.8052C105.277 38.3817 105.666 37.7671 105.9 37.006L104.944 36.7128C104.758 37.3188 104.473 37.7341 104.111 38.0034L104.709 38.8052ZM105.898 37.0118C106.137 36.2637 106.25 35.3655 106.25 34.3301H105.25C105.25 35.2998 105.144 36.0879 104.946 36.707L105.898 37.0118ZM106.25 34.3301C106.25 33.2867 106.138 32.391 105.897 31.6583L104.947 31.9706C105.143 32.5686 105.25 33.35 105.25 34.3301H106.25ZM105.899 31.666C105.665 30.9127 105.274 30.3062 104.704 29.8922L104.117 30.7016C104.476 30.9621 104.759 31.3673 104.944 31.9629L105.899 31.666ZM104.704 29.8922C104.131 29.4767 103.413 29.291 102.592 29.291V30.291C103.265 30.291 103.76 30.4426 104.117 30.7016L104.704 29.8922ZM102.592 29.291C101.363 29.291 100.383 29.722 99.7688 30.6496L100.602 31.202C100.99 30.6165 101.615 30.291 102.592 30.291V29.291ZM99.7664 30.6531C99.1967 31.5288 98.9473 32.7788 98.9473 34.3301H99.9473C99.9473 32.8553 100.19 31.8357 100.605 31.1985L99.7664 30.6531ZM135.056 27.7676L134.701 28.1193L134.704 28.1229L135.056 27.7676ZM136.396 42V42.5H136.896V42H136.396ZM132.212 42H131.712V42.5H132.212V42ZM127.564 30.9531L127.994 31.2082L127.995 31.206L127.564 30.9531ZM126.866 42V42.5H127.366V42H126.866ZM122.697 42H122.197V42.5H122.697V42ZM118.568 30.3516L118.897 30.7279L118.897 30.7274L118.568 30.3516ZM117.624 32.0605L117.14 31.9379L117.139 31.9421L117.624 32.0605ZM117.351 42V42.5H117.851V42H117.351ZM113.181 42H112.681V42.5H113.181V42ZM113.181 26.7148V26.2148H112.681V26.7148H113.181ZM116.366 26.7148L116.847 26.577L116.743 26.2148H116.366V26.7148ZM116.927 28.6699L116.446 28.8077L116.55 29.1699H116.927V28.6699ZM117.159 28.6699V29.1699H117.446L117.591 28.9228L117.159 28.6699ZM118.322 27.3848L118.037 26.9737L118.033 26.9763L118.322 27.3848ZM124.447 26.9746L124.234 27.427L124.236 27.428L124.447 26.9746ZM126.251 28.6699L125.813 28.9101L125.955 29.1699H126.251V28.6699ZM126.62 28.6699V29.1699H126.908L127.053 28.9212L126.62 28.6699ZM128.548 26.9609L128.353 26.5006L128.351 26.5014L128.548 26.9609ZM131.132 26.9277C132.782 26.9277 133.941 27.3522 134.701 28.1193L135.411 27.4158C134.402 26.3965 132.946 25.9277 131.132 25.9277V26.9277ZM134.704 28.1229C135.461 28.872 135.896 30.1343 135.896 32.0332H136.896C136.896 30.0128 136.437 28.4313 135.408 27.4122L134.704 28.1229ZM135.896 32.0332V42H136.896V32.0332H135.896ZM136.396 41.5H132.212V42.5H136.396V41.5ZM132.712 42V33.0723H131.712V42H132.712ZM132.712 33.0723C132.712 31.9362 132.521 30.9944 132.067 30.3187L131.237 30.8766C131.53 31.3129 131.712 32.0208 131.712 33.0723H132.712ZM132.067 30.3187C131.583 29.5994 130.833 29.2637 129.915 29.2637V30.2637C130.565 30.2637 130.973 30.4839 131.237 30.8766L132.067 30.3187ZM129.915 29.2637C128.677 29.2637 127.706 29.7213 127.132 30.7003L127.995 31.206C128.351 30.599 128.948 30.2637 129.915 30.2637V29.2637ZM127.134 30.6981C126.603 31.5927 126.366 32.8223 126.366 34.3301H127.366C127.366 32.903 127.595 31.8812 127.994 31.2082L127.134 30.6981ZM126.366 34.3301V42H127.366V34.3301H126.366ZM126.866 41.5H122.697V42.5H126.866V41.5ZM123.197 42V33.0723H122.197V42H123.197ZM123.197 33.0723C123.197 32.3094 123.111 31.6413 122.925 31.0821L121.976 31.3983C122.118 31.8235 122.197 32.3768 122.197 33.0723H123.197ZM122.925 31.0821C122.736 30.5155 122.433 30.0498 121.993 29.7289L121.404 30.5367C121.639 30.708 121.837 30.9806 121.976 31.3983L122.925 31.0821ZM121.993 29.7289C121.55 29.4055 121.006 29.2637 120.4 29.2637V30.2637C120.851 30.2637 121.173 30.368 121.404 30.5367L121.993 29.7289ZM120.4 29.2637C119.541 29.2637 118.801 29.482 118.238 29.9757L118.897 30.7274C119.228 30.4373 119.709 30.2637 120.4 30.2637V29.2637ZM118.238 29.9753C117.702 30.4443 117.348 31.1161 117.14 31.9379L118.109 32.1832C118.284 31.492 118.558 31.0245 118.897 30.7279L118.238 29.9753ZM117.139 31.9421C116.944 32.7404 116.851 33.6989 116.851 34.8086H117.851C117.851 33.749 117.94 32.8754 118.11 32.179L117.139 31.9421ZM116.851 34.8086V42H117.851V34.8086H116.851ZM117.351 41.5H113.181V42.5H117.351V41.5ZM113.681 42V26.7148H112.681V42H113.681ZM113.181 27.2148H116.366V26.2148H113.181V27.2148ZM115.886 26.8526L116.446 28.8077L117.408 28.5321L116.847 26.577L115.886 26.8526ZM116.927 29.1699H117.159V28.1699H116.927V29.1699ZM117.591 28.9228C117.867 28.4508 118.208 28.0772 118.61 27.7932L118.033 26.9763C117.506 27.3486 117.071 27.8317 116.728 28.4171L117.591 28.9228ZM118.606 27.7959C119.033 27.5004 119.501 27.2826 120.012 27.1424L119.748 26.178C119.129 26.3476 118.558 26.6129 118.037 26.9737L118.606 27.7959ZM120.012 27.1424C120.535 26.9992 121.064 26.9277 121.603 26.9277V25.9277C120.975 25.9277 120.356 26.0112 119.748 26.178L120.012 27.1424ZM121.603 26.9277C122.672 26.9277 123.543 27.1019 124.234 27.427L124.659 26.5222C123.801 26.1182 122.776 25.9277 121.603 25.9277V26.9277ZM124.236 27.428C124.922 27.7471 125.444 28.237 125.813 28.9101L126.69 28.4298C126.22 27.5716 125.539 26.9313 124.657 26.5212L124.236 27.428ZM126.251 29.1699H126.62V28.1699H126.251V29.1699ZM127.053 28.9212C127.455 28.2298 128.015 27.7334 128.745 27.4205L128.351 26.5014C127.422 26.8994 126.698 27.5423 126.188 28.4186L127.053 28.9212ZM128.743 27.4213C129.522 27.0912 130.317 26.9277 131.132 26.9277V25.9277C130.179 25.9277 129.251 26.1198 128.353 26.5006L128.743 27.4213ZM150.362 27.248L150.126 27.6888L150.129 27.6904L150.362 27.248ZM152.727 29.5996L152.287 29.8371L152.727 29.5996ZM153.561 35.3965V35.8965H154.061V35.3965H153.561ZM143.704 35.3965V34.8965H143.184L143.204 35.4158L143.704 35.3965ZM144.756 38.1719L144.398 38.5206L144.403 38.5254L144.756 38.1719ZM152.7 37.9668H153.2V37.1807L152.488 37.514L152.7 37.9668ZM152.7 41.1934L152.921 41.6416L153.2 41.504V41.1934H152.7ZM150.321 42.0137L150.219 41.5242L150.218 41.5245L150.321 42.0137ZM143.253 41.4258L143.036 41.8764L143.037 41.8771L143.253 41.4258ZM140.477 38.8418L140.044 39.091L140.045 39.0935L140.477 38.8418ZM140.381 30.0098L139.936 29.7821L139.936 29.7834L140.381 30.0098ZM142.924 27.3301L143.164 27.7689L143.167 27.7673L142.924 27.3301ZM144.715 30.1738L144.368 29.8142L144.365 29.8172L144.715 30.1738ZM143.799 32.6211L143.301 32.5843L143.261 33.1211H143.799V32.6211ZM149.651 32.6211V33.1211H150.158L150.151 32.6137L149.651 32.6211ZM149.309 30.9668L148.85 31.1659L148.854 31.173L149.309 30.9668ZM148.352 29.8184L148.073 30.233L148.077 30.2357L148.352 29.8184ZM146.711 26.9277C148.06 26.9277 149.192 27.1885 150.126 27.6888L150.598 26.8073C149.49 26.2139 148.189 25.9277 146.711 25.9277V26.9277ZM150.129 27.6904C151.061 28.1812 151.778 28.8931 152.287 29.8371L153.167 29.3621C152.565 28.2462 151.705 27.3904 150.595 26.8057L150.129 27.6904ZM152.287 29.8371C152.795 30.777 153.061 31.9485 153.061 33.373H154.061C154.061 31.8263 153.772 30.4821 153.167 29.3621L152.287 29.8371ZM153.061 33.373V35.3965H154.061V33.373H153.061ZM153.561 34.8965H143.704V35.8965H153.561V34.8965ZM143.204 35.4158C143.253 36.6829 143.636 37.7369 144.398 38.5206L145.115 37.8232C144.565 37.2579 144.245 36.4616 144.203 35.3771L143.204 35.4158ZM144.403 38.5254C145.184 39.3067 146.245 39.6699 147.518 39.6699V38.6699C146.44 38.6699 145.659 38.3678 145.11 37.8183L144.403 38.5254ZM147.518 39.6699C148.527 39.6699 149.461 39.5662 150.318 39.3545L150.078 38.3838C149.312 38.5731 148.459 38.6699 147.518 38.6699V39.6699ZM150.318 39.3545C151.164 39.1452 152.029 38.8327 152.912 38.4196L152.488 37.514C151.657 37.9029 150.854 38.192 150.078 38.3838L150.318 39.3545ZM152.2 37.9668V41.1934H153.2V37.9668H152.2ZM152.478 40.7451C151.76 41.1 151.007 41.3596 150.219 41.5242L150.423 42.5031C151.294 42.3213 152.127 42.0341 152.921 41.6416L152.478 40.7451ZM150.218 41.5245C149.442 41.6882 148.48 41.7734 147.327 41.7734V42.7734C148.525 42.7734 149.559 42.6855 150.424 42.5029L150.218 41.5245ZM147.327 41.7734C145.858 41.7734 144.575 41.5026 143.468 40.9745L143.037 41.8771C144.3 42.4792 145.733 42.7734 147.327 42.7734V41.7734ZM143.469 40.9751C142.386 40.4545 141.535 39.6638 140.909 38.5901L140.045 39.0935C140.768 40.3349 141.768 41.2668 143.036 41.8764L143.469 40.9751ZM140.911 38.5926C140.301 37.5313 139.979 36.1654 139.979 34.4668H138.979C138.979 36.2864 139.323 37.8372 140.044 39.091L140.911 38.5926ZM139.979 34.4668C139.979 32.7331 140.271 31.331 140.827 30.2361L139.936 29.7834C139.288 31.0583 138.979 32.6275 138.979 34.4668H139.979ZM140.827 30.2374C141.396 29.1249 142.175 28.3091 143.164 27.7689L142.685 26.8913C141.504 27.536 140.589 28.5066 139.936 29.7821L140.827 30.2374ZM143.167 27.7673C144.166 27.2131 145.342 26.9277 146.711 26.9277V25.9277C145.2 25.9277 143.852 26.2439 142.682 26.8928L143.167 27.7673ZM146.739 28.8945C145.81 28.8945 145.007 29.1966 144.368 29.8142L145.063 30.5334C145.499 30.112 146.045 29.8945 146.739 29.8945V28.8945ZM144.365 29.8172C143.715 30.4558 143.387 31.4104 143.301 32.5843L144.298 32.6579C144.375 31.6078 144.658 30.9309 145.066 30.5304L144.365 29.8172ZM143.799 33.1211H149.651V32.1211H143.799V33.1211ZM150.151 32.6137C150.141 31.9368 150.016 31.3158 149.765 30.7605L148.854 31.173C149.04 31.5839 149.143 32.0658 149.151 32.6284L150.151 32.6137ZM149.768 30.7677C149.521 30.1981 149.139 29.7384 148.627 29.401L148.077 30.2357C148.422 30.4634 148.678 30.7693 148.85 31.1658L149.768 30.7677ZM148.632 29.4037C148.108 29.0511 147.465 28.8945 146.739 28.8945V29.8945C147.325 29.8945 147.757 30.0205 148.073 30.233L148.632 29.4037ZM160.308 42L159.841 42.178L159.964 42.5H160.308V42ZM154.484 26.7148V26.2148H153.759L154.017 26.8929L154.484 26.7148ZM158.846 26.7148L159.319 26.5543L159.204 26.2148H158.846V26.7148ZM161.799 35.4238L162.275 35.2708L162.272 35.2633L161.799 35.4238ZM162.181 37.0371L161.688 37.1167L161.689 37.1245L162.181 37.0371ZM162.387 38.5547L161.888 38.5954L161.926 39.0547H162.387V38.5547ZM162.496 38.5547V39.0547H162.968L162.995 38.5829L162.496 38.5547ZM162.687 37.0098L162.197 36.9117L162.196 36.9196L162.687 37.0098ZM163.111 35.4238L163.585 35.5845L163.585 35.5837L163.111 35.4238ZM166.051 26.7148V26.2148H165.692L165.577 26.5549L166.051 26.7148ZM170.412 26.7148L170.879 26.8929L171.138 26.2148H170.412V26.7148ZM164.588 42V42.5H164.932L165.055 42.178L164.588 42ZM160.776 41.822L154.951 26.5368L154.017 26.8929L159.841 42.178L160.776 41.822ZM154.484 27.2148H158.846V26.2148H154.484V27.2148ZM158.372 26.8754L161.325 35.5844L162.272 35.2633L159.319 26.5543L158.372 26.8754ZM161.323 35.5768C161.479 36.0617 161.6 36.5748 161.688 37.1167L162.675 36.9575C162.58 36.3692 162.447 35.8068 162.275 35.2708L161.323 35.5768ZM161.689 37.1245C161.787 37.6782 161.853 38.168 161.888 38.5954L162.885 38.514C162.847 38.0481 162.776 37.5263 162.674 36.9498L161.689 37.1245ZM162.387 39.0547H162.496V38.0547H162.387V39.0547ZM162.995 38.5829C163.021 38.1234 163.082 37.6293 163.179 37.0999L162.196 36.9196C162.092 37.484 162.025 38.0198 161.997 38.5264L162.995 38.5829ZM163.178 37.1078C163.283 36.5814 163.419 36.0737 163.585 35.5845L162.638 35.2632C162.457 35.7948 162.311 36.3444 162.197 36.9117L163.178 37.1078ZM163.585 35.5837L166.524 26.8747L165.577 26.5549L162.637 35.2639L163.585 35.5837ZM166.051 27.2148H170.412V26.2148H166.051V27.2148ZM169.945 26.5368L164.121 41.822L165.055 42.178L170.879 26.8929L169.945 26.5368ZM164.588 41.5H160.308V42.5H164.588V41.5ZM183.312 27.7402L183.628 27.353L183.312 27.7402ZM184.952 42V42.5H185.452V42H184.952ZM182.04 42L181.574 42.1809L181.698 42.5H182.04V42ZM181.234 39.9219L181.7 39.7409L181.576 39.4219H181.234V39.9219ZM181.124 39.9219V39.4219H180.884L180.734 39.6095L181.124 39.9219ZM173.618 41.7539L173.399 42.2034L173.402 42.2045L173.618 41.7539ZM171.937 40.168L171.502 40.4154L171.504 40.4178L171.937 40.168ZM173.03 33.8516L173.309 34.2666L173.312 34.265L173.03 33.8516ZM178.157 32.5664L178.142 32.0666L178.139 32.0667L178.157 32.5664ZM180.81 32.4844L180.825 32.9841L181.31 32.9691V32.4844H180.81ZM174.124 30.5977L173.675 30.8178L173.888 31.2517L174.329 31.0538L174.124 30.5977ZM172.743 27.7812L172.51 27.3391L172.081 27.5657L172.294 28.0014L172.743 27.7812ZM175.464 26.7695L175.346 26.2837L175.345 26.2839L175.464 26.7695ZM180.81 34.918H181.31V34.4007L180.793 34.4183L180.81 34.918ZM179.196 34.9727L179.21 35.4725L179.213 35.4724L179.196 34.9727ZM176.38 35.6973L176.057 35.3153L176.054 35.3181L176.38 35.6973ZM176.161 38.8281L175.866 39.2317L175.873 39.2363L176.161 38.8281ZM179.88 38.4316L179.556 38.0512L179.553 38.0536L179.88 38.4316ZM178.595 26.9004C180.581 26.9004 182.024 27.3338 182.995 28.1275L183.628 27.353C182.412 26.3602 180.71 25.9004 178.595 25.9004V26.9004ZM182.995 28.1275C183.941 28.8995 184.452 30.0945 184.452 31.8145H185.452C185.452 29.8886 184.87 28.3674 183.628 27.353L182.995 28.1275ZM184.452 31.8145V42H185.452V31.8145H184.452ZM184.952 41.5H182.04V42.5H184.952V41.5ZM182.506 41.8191L181.7 39.7409L180.767 40.1028L181.574 42.1809L182.506 41.8191ZM181.234 39.4219H181.124V40.4219H181.234V39.4219ZM180.734 39.6095C180.316 40.1312 179.898 40.5469 179.482 40.8636L180.087 41.6598C180.582 41.2838 181.057 40.8063 181.515 40.2342L180.734 39.6095ZM179.482 40.8636C179.08 41.1688 178.614 41.3971 178.079 41.5455L178.345 42.5092C178.995 42.3295 179.577 42.0473 180.087 41.6598L179.482 40.8636ZM178.079 41.5455C177.543 41.6939 176.87 41.7734 176.052 41.7734V42.7734C176.929 42.7734 177.697 42.6889 178.345 42.5092L178.079 41.5455ZM176.052 41.7734C175.215 41.7734 174.479 41.6132 173.835 41.3033L173.402 42.2045C174.197 42.5873 175.084 42.7734 176.052 42.7734V41.7734ZM173.837 41.3044C173.22 41.0035 172.732 40.5461 172.37 39.9181L171.504 40.4178C171.962 41.2117 172.595 41.8116 173.399 42.2034L173.837 41.3044ZM172.371 39.9205C172.016 39.2968 171.821 38.4774 171.821 37.4336H170.821C170.821 38.5955 171.037 39.5991 171.502 40.4154L172.371 39.9205ZM171.821 37.4336C171.821 35.9428 172.335 34.9214 173.309 34.2666L172.752 33.4366C171.447 34.313 170.821 35.6796 170.821 37.4336H171.821ZM173.312 34.265C174.337 33.5675 175.936 33.1467 178.175 33.0661L178.139 32.0667C175.822 32.1502 174.002 32.5862 172.749 33.4381L173.312 34.265ZM178.173 33.0662L180.825 32.9841L180.794 31.9846L178.142 32.0666L178.173 33.0662ZM181.31 32.4844V31.8145H180.31V32.4844H181.31ZM181.31 31.8145C181.31 30.9324 181.078 30.181 180.513 29.6775L179.848 30.424C180.122 30.6679 180.31 31.0923 180.31 31.8145H181.31ZM180.513 29.6775C179.976 29.1984 179.26 28.9902 178.431 28.9902V29.9902C179.097 29.9902 179.547 30.1558 179.848 30.424L180.513 29.6775ZM178.431 28.9902C177.644 28.9902 176.872 29.102 176.116 29.3251L176.398 30.2843C177.064 30.0881 177.741 29.9902 178.431 29.9902V28.9902ZM176.116 29.3251C175.382 29.5414 174.65 29.8137 173.919 30.1415L174.329 31.0538C175.02 30.7436 175.71 30.4872 176.398 30.2843L176.116 29.3251ZM174.573 30.3775L173.192 27.5611L172.294 28.0014L173.675 30.8178L174.573 30.3775ZM172.977 28.2234C173.748 27.8163 174.615 27.4927 175.583 27.2551L175.345 26.2839C174.307 26.5386 173.361 26.8894 172.51 27.3391L172.977 28.2234ZM175.582 27.2554C176.554 27.019 177.558 26.9004 178.595 26.9004V25.9004C177.481 25.9004 176.397 26.0279 175.346 26.2837L175.582 27.2554ZM180.793 34.4183L179.179 34.4729L179.213 35.4724L180.827 35.4177L180.793 34.4183ZM179.183 34.4728C177.812 34.5099 176.723 34.7525 176.057 35.3153L176.703 36.0792C177.094 35.7488 177.882 35.5084 179.21 35.4725L179.183 34.4728ZM176.054 35.3181C175.416 35.8664 175.101 36.5967 175.101 37.4609H176.101C176.101 36.8668 176.305 36.4213 176.706 36.0764L176.054 35.3181ZM175.101 37.4609C175.101 38.1936 175.319 38.8314 175.866 39.2316L176.457 38.4246C176.256 38.278 176.101 38.0043 176.101 37.4609H175.101ZM175.873 39.2363C176.354 39.5766 176.951 39.7246 177.624 39.7246V38.7246C177.094 38.7246 176.716 38.6083 176.45 38.4199L175.873 39.2363ZM177.624 39.7246C178.624 39.7246 179.496 39.4255 180.207 38.8097L179.553 38.0536C179.043 38.4951 178.411 38.7246 177.624 38.7246V39.7246ZM180.204 38.8121C180.958 38.1696 181.31 37.2657 181.31 36.1758H180.31C180.31 37.0364 180.042 37.6364 179.556 38.0512L180.204 38.8121ZM181.31 36.1758V34.918H180.31V36.1758H181.31ZM193.149 42V42.5H193.649V42H193.149ZM188.979 42H188.479V42.5H188.979V42ZM188.979 20.7266V20.2266H188.479V20.7266H188.979ZM193.149 20.7266H193.649V20.2266H193.149V20.7266ZM193.149 41.5H188.979V42.5H193.149V41.5ZM189.479 42V20.7266H188.479V42H189.479ZM188.979 21.2266H193.149V20.2266H188.979V21.2266ZM192.649 20.7266V42H193.649V20.7266H192.649Z"
        fill="url(#paint1_linear_208_32)" />
    <path
        d="M32.9998 50.7011L27.9698 49.2925C27.4421 49.1493 27.1453 48.6161 27.2937 48.1068L38.5493 10.6894C38.6977 10.1801 39.2502 9.89359 39.7779 10.0368L44.8079 11.4454C45.3357 11.5886 45.6325 12.1218 45.4841 12.6311L34.2285 50.0485C34.0718 50.5578 33.5276 50.8523 32.9998 50.7011ZM23.5995 41.7724L27.1865 38.08C27.5658 37.6901 27.5411 37.0694 27.1205 36.7113L19.6497 30.3689L27.1205 24.0266C27.5411 23.6685 27.574 23.0478 27.1865 22.6579L23.5995 18.9655C23.2285 18.5835 22.6018 18.5596 22.1977 18.9257L10.3154 29.6687C9.89487 30.0427 9.89487 30.6873 10.3154 31.0613L22.1977 41.8122C22.6018 42.1783 23.2285 42.1624 23.5995 41.7724ZM50.5801 41.8202L62.4624 31.0692C62.8829 30.6952 62.8829 30.0506 62.4624 29.6766L50.5801 18.9177C50.1843 18.5596 49.5576 18.5755 49.1783 18.9575L45.5913 22.6499C45.212 23.0398 45.2367 23.6605 45.6573 24.0186L53.128 30.3689L45.6573 36.7113C45.2367 37.0694 45.2037 37.6901 45.5913 38.08L49.1783 41.7724C49.5493 42.1624 50.176 42.1783 50.5801 41.8202Z"
        fill="url(#paint2_linear_208_32)" />
    <mask id="path-4-outside-1_208_32" maskUnits="userSpaceOnUse" x="18.2584" y="15.5873" width="36"
        height="29" fill="black">
        <rect fill="white" x="18.2584" y="15.5873" width="36" height="29" />
        <path
            d="M35.9351 23.4993L24.9691 32.531V42.2788C24.9691 42.5312 25.0694 42.7733 25.2479 42.9517C25.4263 43.1302 25.6684 43.2305 25.9208 43.2305L32.5859 43.2132C32.8374 43.212 33.0783 43.1111 33.2557 42.9328C33.4332 42.7545 33.5328 42.5131 33.5328 42.2616V36.5689C33.5328 36.3165 33.633 36.0745 33.8115 35.896C33.99 35.7176 34.232 35.6173 34.4844 35.6173H38.291C38.5434 35.6173 38.7854 35.7176 38.9639 35.896C39.1424 36.0745 39.2426 36.3165 39.2426 36.5689V42.2574C39.2422 42.3826 39.2666 42.5067 39.3142 42.6225C39.3619 42.7383 39.4319 42.8436 39.5203 42.9322C39.6087 43.0209 39.7138 43.0913 39.8294 43.1393C39.9451 43.1873 40.0691 43.212 40.1943 43.212L46.857 43.2305C47.1094 43.2305 47.3514 43.1302 47.5299 42.9517C47.7084 42.7733 47.8086 42.5312 47.8086 42.2788V32.5244L36.8451 23.4993C36.7162 23.3954 36.5556 23.3387 36.3901 23.3387C36.2245 23.3387 36.064 23.3954 35.9351 23.4993ZM53.2568 29.638L48.2845 25.5394V17.3011C48.2845 17.1118 48.2093 16.9302 48.0754 16.7964C47.9416 16.6625 47.76 16.5873 47.5707 16.5873H44.24C44.0507 16.5873 43.8691 16.6625 43.7353 16.7964C43.6014 16.9302 43.5262 17.1118 43.5262 17.3011V21.6198L38.2012 17.2386C37.6902 16.8181 37.0489 16.5882 36.3871 16.5882C35.7253 16.5882 35.0841 16.8181 34.573 17.2386L19.5174 29.638C19.4451 29.6977 19.3853 29.7711 19.3414 29.854C19.2975 29.9368 19.2704 30.0275 19.2615 30.1208C19.2527 30.2142 19.2624 30.3084 19.2899 30.398C19.3175 30.4876 19.3625 30.5709 19.4222 30.6432L20.9389 32.487C20.9985 32.5595 21.0719 32.6195 21.1547 32.6636C21.2375 32.7077 21.3283 32.735 21.4217 32.7441C21.5151 32.7531 21.6094 32.7436 21.6991 32.7161C21.7889 32.6886 21.8723 32.6437 21.9447 32.5839L35.9351 21.0607C36.064 20.9568 36.2245 20.9001 36.3901 20.9001C36.5556 20.9001 36.7162 20.9568 36.8451 21.0607L50.8361 32.5839C50.9083 32.6437 50.9916 32.6887 51.0812 32.7162C51.1709 32.7438 51.265 32.7534 51.3584 32.7446C51.4517 32.7358 51.5424 32.7086 51.6253 32.6647C51.7081 32.6208 51.7815 32.561 51.8412 32.4888L53.3579 30.6449C53.4176 30.5723 53.4624 30.4885 53.4897 30.3985C53.5169 30.3085 53.5261 30.214 53.5167 30.1204C53.5073 30.0269 53.4795 29.9361 53.4349 29.8533C53.3903 29.7705 53.3298 29.6973 53.2568 29.638Z" />
    </mask>
    <path
        d="M35.9351 23.4993L24.9691 32.531V42.2788C24.9691 42.5312 25.0694 42.7733 25.2479 42.9517C25.4263 43.1302 25.6684 43.2305 25.9208 43.2305L32.5859 43.2132C32.8374 43.212 33.0783 43.1111 33.2557 42.9328C33.4332 42.7545 33.5328 42.5131 33.5328 42.2616V36.5689C33.5328 36.3165 33.633 36.0745 33.8115 35.896C33.99 35.7176 34.232 35.6173 34.4844 35.6173H38.291C38.5434 35.6173 38.7854 35.7176 38.9639 35.896C39.1424 36.0745 39.2426 36.3165 39.2426 36.5689V42.2574C39.2422 42.3826 39.2666 42.5067 39.3142 42.6225C39.3619 42.7383 39.4319 42.8436 39.5203 42.9322C39.6087 43.0209 39.7138 43.0913 39.8294 43.1393C39.9451 43.1873 40.0691 43.212 40.1943 43.212L46.857 43.2305C47.1094 43.2305 47.3514 43.1302 47.5299 42.9517C47.7084 42.7733 47.8086 42.5312 47.8086 42.2788V32.5244L36.8451 23.4993C36.7162 23.3954 36.5556 23.3387 36.3901 23.3387C36.2245 23.3387 36.064 23.3954 35.9351 23.4993ZM53.2568 29.638L48.2845 25.5394V17.3011C48.2845 17.1118 48.2093 16.9302 48.0754 16.7964C47.9416 16.6625 47.76 16.5873 47.5707 16.5873H44.24C44.0507 16.5873 43.8691 16.6625 43.7353 16.7964C43.6014 16.9302 43.5262 17.1118 43.5262 17.3011V21.6198L38.2012 17.2386C37.6902 16.8181 37.0489 16.5882 36.3871 16.5882C35.7253 16.5882 35.0841 16.8181 34.573 17.2386L19.5174 29.638C19.4451 29.6977 19.3853 29.7711 19.3414 29.854C19.2975 29.9368 19.2704 30.0275 19.2615 30.1208C19.2527 30.2142 19.2624 30.3084 19.2899 30.398C19.3175 30.4876 19.3625 30.5709 19.4222 30.6432L20.9389 32.487C20.9985 32.5595 21.0719 32.6195 21.1547 32.6636C21.2375 32.7077 21.3283 32.735 21.4217 32.7441C21.5151 32.7531 21.6094 32.7436 21.6991 32.7161C21.7889 32.6886 21.8723 32.6437 21.9447 32.5839L35.9351 21.0607C36.064 20.9568 36.2245 20.9001 36.3901 20.9001C36.5556 20.9001 36.7162 20.9568 36.8451 21.0607L50.8361 32.5839C50.9083 32.6437 50.9916 32.6887 51.0812 32.7162C51.1709 32.7438 51.265 32.7534 51.3584 32.7446C51.4517 32.7358 51.5424 32.7086 51.6253 32.6647C51.7081 32.6208 51.7815 32.561 51.8412 32.4888L53.3579 30.6449C53.4176 30.5723 53.4624 30.4885 53.4897 30.3985C53.5169 30.3085 53.5261 30.214 53.5167 30.1204C53.5073 30.0269 53.4795 29.9361 53.4349 29.8533C53.3903 29.7705 53.3298 29.6973 53.2568 29.638Z"
        fill="#F5F9FC" />
    <path
        d="M35.9351 23.4993L35.6213 23.11L35.6172 23.1133L35.9351 23.4993ZM24.9691 32.531L24.6513 32.145L24.4691 32.295V32.531H24.9691ZM25.9208 43.2305V43.7305L25.9221 43.7305L25.9208 43.2305ZM32.5859 43.2132L32.5872 43.7132L32.5884 43.7132L32.5859 43.2132ZM33.5328 42.2616L33.0328 42.2616L33.0328 42.2616L33.5328 42.2616ZM39.2426 42.2574L39.7426 42.259V42.2574H39.2426ZM40.1943 43.212L40.1957 42.712L40.1943 42.712L40.1943 43.212ZM46.857 43.2305L46.8556 43.7305H46.857V43.2305ZM47.8086 32.5244H48.3086V32.2884L48.1264 32.1384L47.8086 32.5244ZM36.8451 23.4993L37.1629 23.1132L37.1589 23.11L36.8451 23.4993ZM53.2568 29.638L52.9388 30.0238L52.9414 30.0259L53.2568 29.638ZM48.2845 25.5394H47.7845V25.7752L47.9664 25.9252L48.2845 25.5394ZM43.5262 21.6198L43.2086 22.0059L44.0262 22.6786V21.6198H43.5262ZM38.2012 17.2386L37.8835 17.6247L37.8835 17.6247L38.2012 17.2386ZM36.3871 16.5882V17.0882V16.5882ZM34.573 17.2386L34.2553 16.8525L34.2552 16.8527L34.573 17.2386ZM19.5174 29.638L19.1995 29.252L19.1989 29.2526L19.5174 29.638ZM19.4222 30.6432L19.8084 30.3255L19.8074 30.3244L19.4222 30.6432ZM20.9389 32.487L21.3251 32.1694L21.3251 32.1693L20.9389 32.487ZM21.9447 32.5839L21.6268 32.198L21.6263 32.1984L21.9447 32.5839ZM35.9351 21.0607L35.6213 20.6714L35.6172 20.6747L35.9351 21.0607ZM36.8451 21.0607L37.163 20.6747L37.1589 20.6714L36.8451 21.0607ZM50.8361 32.5839L51.1548 32.1987L51.1539 32.198L50.8361 32.5839ZM51.8412 32.4888L52.2266 32.8073L52.2274 32.8064L51.8412 32.4888ZM53.3579 30.6449L53.7441 30.9626L53.7442 30.9624L53.3579 30.6449ZM35.6172 23.1133L24.6513 32.145L25.287 32.9169L36.2529 23.8852L35.6172 23.1133ZM24.4691 32.531V42.2788H25.4691V32.531H24.4691ZM24.4691 42.2788C24.4691 42.6638 24.6221 43.033 24.8943 43.3053L25.6014 42.5982C25.5167 42.5135 25.4691 42.3986 25.4691 42.2788H24.4691ZM24.8943 43.3053C25.1666 43.5775 25.5358 43.7305 25.9208 43.7305V42.7305C25.801 42.7305 25.6861 42.6829 25.6014 42.5982L24.8943 43.3053ZM25.9221 43.7305L32.5872 43.7132L32.5846 42.7132L25.9195 42.7305L25.9221 43.7305ZM32.5884 43.7132C32.9721 43.7113 33.3395 43.5575 33.6102 43.2855L32.9013 42.5801C32.8171 42.6648 32.7028 42.7126 32.5834 42.7132L32.5884 43.7132ZM33.6102 43.2855C33.8808 43.0134 34.0328 42.6453 34.0328 42.2616L33.0328 42.2616C33.0328 42.381 32.9855 42.4955 32.9013 42.5801L33.6102 43.2855ZM34.0328 42.2616V36.5689H33.0328V42.2616H34.0328ZM34.0328 36.5689C34.0328 36.4492 34.0803 36.3343 34.165 36.2496L33.4579 35.5425C33.1857 35.8147 33.0328 36.1839 33.0328 36.5689H34.0328ZM34.165 36.2496C34.2497 36.1649 34.3646 36.1173 34.4844 36.1173V35.1173C34.0994 35.1173 33.7302 35.2702 33.4579 35.5425L34.165 36.2496ZM34.4844 36.1173H38.291V35.1173H34.4844V36.1173ZM38.291 36.1173C38.4108 36.1173 38.5257 36.1649 38.6104 36.2496L39.3175 35.5425C39.0452 35.2702 38.676 35.1173 38.291 35.1173V36.1173ZM38.6104 36.2496C38.6951 36.3343 38.7426 36.4492 38.7426 36.5689H39.7426C39.7426 36.1839 39.5897 35.8147 39.3175 35.5425L38.6104 36.2496ZM38.7426 36.5689V42.2574H39.7426V36.5689H38.7426ZM38.7426 42.2558C38.742 42.4468 38.7791 42.6361 38.8518 42.8128L39.7766 42.4322C39.754 42.3773 39.7425 42.3184 39.7426 42.259L38.7426 42.2558ZM38.8518 42.8128C38.9245 42.9894 39.0314 43.15 39.1662 43.2852L39.8744 42.5792C39.8325 42.5371 39.7992 42.4872 39.7766 42.4322L38.8518 42.8128ZM39.1662 43.2852C39.3011 43.4205 39.4613 43.5279 39.6377 43.6011L40.0211 42.6775C39.9662 42.6547 39.9164 42.6213 39.8744 42.5792L39.1662 43.2852ZM39.6377 43.6011C39.8141 43.6743 40.0033 43.712 40.1943 43.712L40.1943 42.712C40.1349 42.712 40.076 42.7003 40.0211 42.6775L39.6377 43.6011ZM40.1929 43.712L46.8556 43.7305L46.8584 42.7305L40.1957 42.712L40.1929 43.712ZM46.857 43.7305C47.242 43.7305 47.6112 43.5775 47.8835 43.3053L47.1764 42.5982C47.0917 42.6829 46.9768 42.7305 46.857 42.7305V43.7305ZM47.8835 43.3053C48.1557 43.033 48.3086 42.6638 48.3086 42.2788H47.3086C47.3086 42.3986 47.2611 42.5135 47.1764 42.5982L47.8835 43.3053ZM48.3086 42.2788V32.5244H47.3086V42.2788H48.3086ZM48.1264 32.1384L37.1629 23.1132L36.5273 23.8853L47.4909 32.9105L48.1264 32.1384ZM37.1589 23.11C36.9411 22.9344 36.6698 22.8387 36.3901 22.8387V23.8387C36.4415 23.8387 36.4913 23.8563 36.5313 23.8885L37.1589 23.11ZM36.3901 22.8387C36.1104 22.8387 35.8391 22.9344 35.6213 23.11L36.2489 23.8885C36.2889 23.8563 36.3387 23.8387 36.3901 23.8387V22.8387ZM53.5748 29.2522L48.6025 25.1535L47.9664 25.9252L52.9388 30.0238L53.5748 29.2522ZM48.7845 25.5394V17.3011H47.7845V25.5394H48.7845ZM48.7845 17.3011C48.7845 16.9792 48.6566 16.6705 48.429 16.4428L47.7219 17.1499C47.7619 17.19 47.7845 17.2444 47.7845 17.3011H48.7845ZM48.429 16.4428C48.2014 16.2152 47.8926 16.0873 47.5707 16.0873V17.0873C47.6274 17.0873 47.6818 17.1099 47.7219 17.1499L48.429 16.4428ZM47.5707 16.0873H44.24V17.0873H47.5707V16.0873ZM44.24 16.0873C43.9181 16.0873 43.6093 16.2152 43.3817 16.4428L44.0888 17.1499C44.1289 17.1099 44.1833 17.0873 44.24 17.0873V16.0873ZM43.3817 16.4428C43.1541 16.6705 43.0262 16.9792 43.0262 17.3011H44.0262C44.0262 17.2444 44.0488 17.19 44.0888 17.1499L43.3817 16.4428ZM43.0262 17.3011V21.6198H44.0262V17.3011H43.0262ZM43.8439 21.2337L38.5189 16.8525L37.8835 17.6247L43.2086 22.0059L43.8439 21.2337ZM38.5189 16.8525C37.9184 16.3584 37.1648 16.0882 36.3871 16.0882V17.0882C36.933 17.0882 37.4619 17.2778 37.8835 17.6247L38.5189 16.8525ZM36.3871 16.0882C35.6094 16.0882 34.8558 16.3584 34.2553 16.8525L34.8907 17.6247C35.3123 17.2778 35.8412 17.0882 36.3871 17.0882V16.0882ZM34.2552 16.8527L19.1995 29.252L19.8353 30.0239L34.8909 17.6246L34.2552 16.8527ZM19.1989 29.2526C19.076 29.3542 18.9743 29.479 18.8996 29.6199L19.7832 30.0881C19.7964 30.0632 19.8143 30.0413 19.8359 30.0234L19.1989 29.2526ZM18.8996 29.6199C18.825 29.7608 18.7788 29.915 18.7638 30.0737L19.7593 30.168C19.762 30.14 19.7701 30.1129 19.7832 30.0881L18.8996 29.6199ZM18.7638 30.0737C18.7487 30.2325 18.7651 30.3926 18.812 30.545L19.7678 30.251C19.7596 30.2241 19.7567 30.1959 19.7593 30.168L18.7638 30.0737ZM18.812 30.545C18.8589 30.6974 18.9354 30.8391 19.037 30.9619L19.8074 30.3244C19.7895 30.3027 19.7761 30.2778 19.7678 30.251L18.812 30.545ZM19.0361 30.9608L20.5528 32.8046L21.3251 32.1693L19.8084 30.3255L19.0361 30.9608ZM20.5527 32.8046C20.6541 32.9278 20.7788 33.0299 20.9197 33.1049L21.3897 32.2223C21.3649 32.2091 21.3429 32.1911 21.3251 32.1694L20.5527 32.8046ZM20.9197 33.1049C21.0606 33.1799 21.2148 33.2264 21.3737 33.2417L21.4697 32.2464C21.4417 32.2437 21.4145 32.2355 21.3897 32.2223L20.9197 33.1049ZM21.3737 33.2417C21.5326 33.2571 21.6929 33.2409 21.8455 33.1942L21.5528 32.238C21.5259 32.2462 21.4976 32.2491 21.4697 32.2464L21.3737 33.2417ZM21.8455 33.1942C21.9981 33.1474 22.14 33.0711 22.2631 32.9694L21.6263 32.1984C21.6046 32.2163 21.5796 32.2298 21.5528 32.238L21.8455 33.1942ZM22.2626 32.9699L36.253 21.4466L35.6172 20.6747L21.6268 32.198L22.2626 32.9699ZM36.2489 21.45C36.2889 21.4177 36.3387 21.4001 36.3901 21.4001V20.4001C36.1104 20.4001 35.8391 20.4959 35.6213 20.6714L36.2489 21.45ZM36.3901 21.4001C36.4415 21.4001 36.4913 21.4177 36.5313 21.45L37.1589 20.6714C36.9411 20.4958 36.6698 20.4001 36.3901 20.4001V21.4001ZM36.5272 21.4466L50.5182 32.9699L51.1539 32.198L37.163 20.6747L36.5272 21.4466ZM50.5173 32.9691C50.6401 33.0708 50.7818 33.1472 50.9342 33.1941L51.2283 32.2383C51.2014 32.2301 51.1765 32.2166 51.1548 32.1987L50.5173 32.9691ZM50.9342 33.1941C51.0866 33.241 51.2468 33.2574 51.4055 33.2424L51.3112 32.2468C51.2833 32.2495 51.2551 32.2466 51.2283 32.2383L50.9342 33.1941ZM51.4055 33.2424C51.5642 33.2273 51.7185 33.1812 51.8594 33.1065L51.3912 32.2229C51.3664 32.2361 51.3392 32.2442 51.3112 32.2468L51.4055 33.2424ZM51.8594 33.1065C52.0003 33.0319 52.1251 32.9302 52.2266 32.8073L51.4558 32.1702C51.438 32.1919 51.416 32.2098 51.3912 32.2229L51.8594 33.1065ZM52.2274 32.8064L53.7441 30.9626L52.9718 30.3273L51.4551 32.1711L52.2274 32.8064ZM53.7442 30.9624C53.8457 30.8389 53.9219 30.6965 53.9682 30.5434L53.0111 30.2537C53.0029 30.2806 52.9895 30.3057 52.9717 30.3275L53.7442 30.9624ZM53.9682 30.5434C54.0146 30.3903 54.0302 30.2296 54.0142 30.0705L53.0192 30.1704C53.022 30.1984 53.0193 30.2267 53.0111 30.2537L53.9682 30.5434ZM54.0142 30.0705C53.9982 29.9114 53.9509 29.757 53.8751 29.6162L52.9947 30.0904C53.0081 30.1152 53.0164 30.1424 53.0192 30.1704L54.0142 30.0705ZM53.8751 29.6162C53.7993 29.4754 53.6963 29.3509 53.5723 29.25L52.9414 30.0259C52.9632 30.0437 52.9814 30.0656 52.9947 30.0904L53.8751 29.6162Z"
        fill="black" mask="url(#path-4-outside-1_208_32)" />
    <defs>
        <linearGradient id="paint0_linear_208_32" x1="73.0133" y1="31" x2="196.013" y2="31"
            gradientUnits="userSpaceOnUse">
            <stop stop-color="#A64DFF" />
            <stop offset="1" stop-color="#57ABFF" />
        </linearGradient>
        <linearGradient id="paint1_linear_208_32" x1="73.0133" y1="31" x2="196.013" y2="31"
            gradientUnits="userSpaceOnUse">
            <stop stop-color="#A64DFF" />
            <stop offset="1" stop-color="#57ABFF" />
        </linearGradient>
        <linearGradient id="paint2_linear_208_32" x1="10.406" y1="9.90525" x2="43.2745" y2="62.7204"
            gradientUnits="userSpaceOnUse">
            <stop stop-color="#F562F5" />
            <stop offset="0.498959" stop-color="#A64DFF" />
            <stop offset="1" stop-color="#27B9D6" />
        </linearGradient>
    </defs>
</svg>